<svg width="593" height="402" viewBox="0 0 593 402" fill="none" xmlns="http://www.w3.org/2000/svg">
<path d="M46.1616 101.923H188.198L252.114 165.921H366.926L405.394 125.626H500.085" stroke="#EEEEFF" stroke-width="2" stroke-linecap="round" stroke-linejoin="round"/>
<path d="M110.67 234.067H204.177L363.376 74.6644H581.756" stroke="#EEEEFF" stroke-width="2" stroke-linecap="round" stroke-linejoin="round"/>
<ellipse cx="222.523" cy="28.4436" rx="28.4072" ry="28.4436" fill="url(#paint0_linear_1_213)"/>
<ellipse cx="94.6905" cy="101.923" rx="3.5509" ry="3.55545" fill="#EEEEFF"/>
<path d="M80.4871 100.738L94.6907 98.3677V105.479L80.4871 103.108V100.738Z" fill="url(#paint1_linear_1_213)"/>
<path d="M177.545 112.589L214.238 149.329" stroke="#EEEEFF" stroke-width="2" stroke-linecap="round" stroke-linejoin="round"/>
<path d="M217.788 152.884L227.257 162.366" stroke="#EEEEFF" stroke-width="2" stroke-linecap="round" stroke-linejoin="round"/>
<path d="M401.251 235.845L437.944 272.585" stroke="#EEEEFF" stroke-width="2" stroke-linecap="round" stroke-linejoin="round"/>
<path d="M441.495 276.14L450.964 285.621" stroke="#EEEEFF" stroke-width="2" stroke-linecap="round" stroke-linejoin="round"/>
<path d="M415.455 140.938H520.207" stroke="#EEEEFF" stroke-width="2" stroke-linecap="round" stroke-linejoin="round"/>
<path d="M525.533 140.938H538.924" stroke="#EEEEFF" stroke-width="2" stroke-linecap="round" stroke-linejoin="round"/>
<path d="M544.471 140.938H572.287" stroke="#EEEEFF" stroke-width="2" stroke-linecap="round" stroke-linejoin="round"/>
<path d="M79.8953 218.364H140.261" stroke="#EEEEFF" stroke-width="2" stroke-linecap="round" stroke-linejoin="round"/>
<path d="M145.587 218.364H158.978" stroke="#EEEEFF" stroke-width="2" stroke-linecap="round" stroke-linejoin="round"/>
<path d="M164.525 218.364H192.34" stroke="#EEEEFF" stroke-width="2" stroke-linecap="round" stroke-linejoin="round"/>
<ellipse cx="456.882" cy="125.626" rx="3.5509" ry="3.55545" fill="#EEEEFF"/>
<path d="M442.679 124.441L456.882 122.071V129.181L442.679 126.811V124.441Z" fill="url(#paint2_linear_1_213)"/>
<ellipse cx="543.287" cy="74.6645" rx="3.5509" ry="3.55545" fill="#EEEEFF"/>
<path d="M529.084 73.4793L543.287 71.109V78.2199L529.084 75.8496V73.4793Z" fill="url(#paint3_linear_1_213)"/>
<path d="M62.7324 304.584H196.483L285.847 215.105H403.027L452.148 264.289H550.981" stroke="#EEEEFF" stroke-width="2" stroke-linecap="round" stroke-linejoin="round"/>
<ellipse cx="169.26" cy="304.584" rx="3.5509" ry="3.55545" fill="#EEEEFF"/>
<path d="M155.056 303.399L169.26 301.028V308.139L155.056 305.769V303.399Z" fill="url(#paint4_linear_1_213)"/>
<path d="M200.734 139.434C200.734 139.434 180.837 181.006 200.259 247.479C200.404 247.976 200.579 248.462 200.734 248.948C215.466 293.095 371.639 281.006 398.675 266.001C398.675 266.001 428.243 199.63 401.248 137.118C401.258 137.118 291.729 88.4207 200.734 139.434Z" fill="#315EFB"/>
<g style="mix-blend-mode:soft-light">
<mask id="mask0_1_213" style="mask-type:alpha" maskUnits="userSpaceOnUse" x="191" y="116" width="222" height="164">
<path d="M200.734 139.434C200.734 139.434 180.837 181.006 200.259 247.479C200.404 247.976 200.579 248.462 200.734 248.948C215.466 293.095 371.639 281.006 398.675 266.001C398.675 266.001 428.243 199.63 401.248 137.118C401.258 137.118 291.729 88.4207 200.734 139.434Z" fill="#315EFB"/>
</mask>
<g mask="url(#mask0_1_213)">
<g style="mix-blend-mode:soft-light">
<path d="M193 160.5C193 160.5 187.025 194.175 200.116 250.797C200.116 250.797 205.67 280.613 288.992 285.423C362.258 289.656 399.871 269.205 399.871 269.205C399.871 269.205 414.364 244.28 416 232.12C416 232.12 325.876 268.419 237 238.5C186.5 221.5 193 160.5 193 160.5Z" fill="url(#paint5_linear_1_213)"/>
</g>
</g>
</g>
<path d="M410.056 225.41L411 221.012C411 221.012 392.427 224.567 375.775 223.232C359.123 221.896 354.513 216.203 352.003 209C352.003 209 351.28 225.05 374.22 227.311C397.459 229.613 410.056 225.41 410.056 225.41Z" fill="#1642FA"/>
<path d="M414.218 221.223C414.218 221.223 419.383 206.745 415.654 184.439C415.654 184.439 401.387 176.383 375.043 178.741C348.699 181.099 346.498 199.909 351.509 213.849C357.056 229.237 392.037 226.693 414.218 221.223Z" fill="#356BFF"/>
<circle cx="370" cy="203" r="14" fill="white"/>
<path d="M382.667 203C382.667 209.996 376.996 215.667 370 215.667C363.004 215.667 357.333 209.996 357.333 203C357.333 203 364 205.667 372.667 200.334C382.667 194.18 382.667 203 382.667 203Z" fill="url(#paint6_linear_1_213)"/>
<path fill-rule="evenodd" clip-rule="evenodd" d="M365.655 200.909C367.095 200.909 368.262 199.734 368.262 198.283C368.262 196.833 367.095 195.657 365.655 195.657C364.216 195.657 363.049 196.833 363.049 198.283C363.049 199.734 364.216 200.909 365.655 200.909Z" fill="#315EFB"/>
<path fill-rule="evenodd" clip-rule="evenodd" d="M374.344 209.663C375.784 209.663 376.951 208.488 376.951 207.037C376.951 205.587 375.784 204.411 374.344 204.411C372.905 204.411 371.738 205.587 371.738 207.037C371.738 208.488 372.905 209.663 374.344 209.663Z" fill="#315EFB"/>
<path fill-rule="evenodd" clip-rule="evenodd" d="M374.278 196.533C372.802 196.533 371.605 197.739 371.605 199.227C371.605 200.714 372.802 201.92 374.278 201.92C375.754 201.92 376.951 200.714 376.951 199.227C376.951 197.739 375.754 196.533 374.278 196.533Z" fill="#315EFB"/>
<path fill-rule="evenodd" clip-rule="evenodd" d="M365.723 205.152C364.247 205.152 363.05 206.358 363.05 207.845C363.05 209.333 364.247 210.539 365.723 210.539C367.2 210.539 368.397 209.333 368.397 207.845C368.397 206.358 367.2 205.152 365.723 205.152Z" fill="#315EFB"/>
<path d="M223.988 44.2797C231.434 14.4378 289.733 2.53658 317.952 0.316202C364.49 -3.34572 360.944 25.6285 317.952 44.2797C303.944 50.3563 294.904 77.1412 265.651 84.6905C254.32 87.6149 214.68 81.582 223.988 44.2797Z" fill="url(#paint7_linear_1_213)"/>
<circle r="3.55318" transform="matrix(0.706653 0.70756 -0.706653 0.70756 430.377 242.49)" fill="#EEEEFF"/>
<path d="M421.17 231.595L432.888 239.976L427.866 245.004L419.496 233.272L421.17 231.595Z" fill="url(#paint8_linear_1_213)"/>
<path d="M1.92255 247.815C-4.97406 231.767 8.33286 225.247 15.8484 223.994C54.9732 223.994 83.4884 247.815 103.382 252.83C123.276 257.844 150.465 256.591 186.274 276.024C222.084 295.457 229.378 313.009 248.609 331.188C267.84 349.367 283.755 338.084 310.281 339.964C336.806 341.845 346.09 360.651 310.281 375.069C274.471 389.487 257.23 375.696 229.378 375.069C201.526 374.442 165.054 343.726 150.465 323.039C135.876 302.352 113.329 284.8 83.4884 281.666C53.6473 278.531 10.5433 267.874 1.92255 247.815Z" fill="url(#paint9_linear_1_213)"/>
<path d="M328.576 329.328L400.434 379.267L284.269 402L328.576 329.328Z" fill="url(#paint10_linear_1_213)"/>
<path fill-rule="evenodd" clip-rule="evenodd" d="M522.533 309.966C523.49 304.385 528.795 300.621 534.378 301.581C539.962 302.54 543.71 307.859 542.753 313.441C541.797 319.022 536.492 322.786 530.908 321.826C525.325 320.867 521.577 315.548 522.533 309.966ZM531.537 310.672L526.66 309.834L525.781 311.574L530.658 312.412L531.537 310.672ZM538.586 308.717C539.004 308.788 539.523 309.077 539.701 309.646C539.88 310.214 539.76 310.47 539.446 311.138L539.446 311.139C539.131 311.808 538.139 313.805 537.752 314.508C537.366 315.21 536.781 315.755 536.108 316.009L536.048 316.031C535.419 316.269 535.154 316.368 534.325 316.226L525.571 314.722L526.53 312.827L534.764 314.241L536.68 310.449L528.512 309.045L529.472 307.15L538.586 308.717Z" fill="#315EFB"/>
<path fill-rule="evenodd" clip-rule="evenodd" d="M462.543 335.445C467.621 327.58 478.135 325.305 486.005 330.399C493.876 335.493 496.123 346.027 491.045 353.892C485.967 361.758 475.453 364.032 467.582 358.938C459.712 353.844 457.465 343.311 462.543 335.445ZM468.7 344.192L470.371 344.537L466.376 348.31L478.423 356.107L481.4 353.289L474.175 348.613L477.075 345.864L478.755 346.193L481.055 344.028L479.39 343.709L484.558 338.824L479.76 335.719L472.715 342.355L471.013 342.024L468.701 344.192L468.7 344.192Z" fill="#315EFB"/>
<path d="M488.502 202.339C489.811 191.477 496.249 187.657 499.304 187.106C512.725 191.08 528.437 179.82 540.221 183.132C552.005 186.443 561.17 202.339 566.735 207.638C572.299 212.936 600.777 218.235 590.957 234.793C581.137 251.351 566.08 234.793 542.839 230.157C519.599 225.52 521.235 240.423 510.761 245.059C500.286 249.695 492.103 242.41 488.502 234.793C484.901 227.176 486.865 215.917 488.502 202.339Z" fill="url(#paint11_linear_1_213)"/>
<path fill-rule="evenodd" clip-rule="evenodd" d="M158.527 378.377C148.112 367.644 148.359 350.487 159.079 340.059C169.799 329.63 186.934 329.878 197.349 340.611C207.764 351.345 207.517 368.501 196.797 378.93C186.076 389.359 168.942 389.111 158.527 378.377Z" fill="white"/>
<path fill-rule="evenodd" clip-rule="evenodd" d="M156.16 378.377C145.746 367.645 145.992 350.487 156.712 340.059C167.432 329.63 184.568 329.879 194.982 340.611C205.395 351.344 205.15 368.501 194.43 378.93C183.709 389.359 166.574 389.11 156.16 378.377ZM188.755 373.085L168.866 369.581L182.13 366.258L182.131 366.259L185.834 353.074L188.755 373.085ZM162.383 345.907L184.294 351.498L180.514 364.592L167.332 368L162.383 345.907Z" fill="#315EFB"/>
<path fill-rule="evenodd" clip-rule="evenodd" d="M498.668 168.503C504.095 161.843 513.89 160.846 520.544 166.28C527.198 171.715 528.191 181.524 522.765 188.184C517.338 194.845 507.543 195.842 500.889 190.408C494.235 184.973 493.242 175.164 498.668 168.503Z" fill="white"/>
<path fill-rule="evenodd" clip-rule="evenodd" d="M496.301 167.318C501.723 160.663 511.523 159.661 518.177 165.095C524.831 170.53 525.819 180.344 520.397 186.999C514.975 193.655 505.175 194.657 498.521 189.222C491.867 183.788 490.879 173.974 496.301 167.318ZM501.476 185.593L502.156 173.996L504.929 181.355L504.928 181.356L512.688 182.598L501.476 185.593ZM515.219 168.723L513.484 181.614L505.771 180.321L502.956 173.014L515.219 168.723Z" fill="#315EFB"/>
<path d="M469.31 171.847H478.779" stroke="#28BC00" stroke-width="2" stroke-linecap="round" stroke-linejoin="round"/>
<path d="M484.106 181.328H459.25" stroke="#28BC00" stroke-width="2" stroke-linecap="round" stroke-linejoin="round"/>
<path d="M122.506 170.662H138.485" stroke="#28BC00" stroke-width="2" stroke-linecap="round" stroke-linejoin="round"/>
<path d="M151.505 180.143H126.649" stroke="#28BC00" stroke-width="2" stroke-linecap="round" stroke-linejoin="round"/>
<path fill-rule="evenodd" clip-rule="evenodd" d="M106.755 66.3108C102.715 59.4102 105.024 50.5035 111.93 46.4498C118.836 42.3962 127.726 44.7307 131.766 51.6312C135.805 58.5317 133.497 67.4385 126.591 71.4921C119.684 75.5458 110.795 73.2113 106.755 66.3108ZM125.335 59.5543L120.337 62.4879C120.485 61.7853 120.611 61.0782 120.715 60.3677C120.998 58.5793 121.271 56.7891 121.532 54.9972C121.553 54.8509 121.586 54.6987 121.619 54.5445C121.712 54.1085 121.808 53.6604 121.677 53.306C121.447 52.6614 121.071 52.0659 120.684 51.4533C120.524 51.203 120.369 50.95 120.217 50.6945L117.116 52.515L115.843 50.3417L113.357 51.8007L114.662 54.0291L111.816 55.6995L113.375 58.3615L118.168 55.548C118.11 55.8872 118.051 56.2049 117.995 56.5132C117.923 56.9056 117.855 57.2823 117.79 57.6682C117.507 59.4567 117.235 61.2469 116.974 63.0388C116.957 63.1981 116.924 63.367 116.891 63.5378C116.811 63.9504 116.728 64.3756 116.854 64.7151C117.085 65.3609 117.462 65.9579 117.844 66.5622C117.997 66.8055 118.151 67.0495 118.297 67.2988L121.373 65.4932L122.662 67.6946L125.25 66.1755C125.009 65.8177 124.77 65.458 124.533 65.0966C124.3 64.7418 124.066 64.387 123.818 64.0221L126.894 62.2169L125.335 59.5545L125.335 59.5543Z" fill="#315EFB"/>
<path d="M133.159 78.22L139.077 84.1457" stroke="#28BC00" stroke-width="2" stroke-linecap="round" stroke-linejoin="round"/>
<path d="M430.842 62.2204C430.842 44.2436 445.415 29.6288 463.392 29.6288C481.369 29.6288 495.942 44.2436 495.942 62.2204C495.942 80.1973 481.369 94.8121 463.392 94.8121C445.415 94.8121 430.842 80.1973 430.842 62.2204Z" fill="white"/>
<path fill-rule="evenodd" clip-rule="evenodd" d="M462.208 33.1842C445.539 33.1842 432.026 46.7362 432.026 63.4055C432.026 80.075 445.539 93.627 462.208 93.627C478.878 93.627 492.391 80.075 492.391 63.4055C492.391 46.7362 478.878 33.1842 462.208 33.1842ZM469.234 52.158C473.351 53.5779 476.362 55.7064 475.77 59.6659C475.342 62.5643 473.737 63.9675 471.606 64.4595C474.532 65.9845 476.021 68.3231 474.603 72.3774C472.843 77.4128 468.662 77.8378 463.102 76.7842L461.752 82.199L458.491 81.3853L459.823 76.0431C458.978 75.8329 458.115 75.6097 457.225 75.3679L455.888 80.7352L452.631 79.9216L453.981 74.4967C453.678 74.4192 453.374 74.3397 453.068 74.2596L453.049 74.2545C452.59 74.1348 452.126 74.0138 451.656 73.896L447.413 72.8368L449.032 69.0996C449.032 69.0996 451.434 69.7394 451.402 69.6919C452.325 69.9207 452.735 69.3181 452.896 68.9164L455.028 60.3568L455.249 60.4114L455.265 60.4154L455.373 60.4424C455.243 60.3903 455.125 60.3568 455.034 60.3335L456.555 54.2233C456.595 53.5295 456.356 52.6545 455.036 52.3245C455.087 52.29 452.668 51.7349 452.668 51.7349L453.535 48.2478L458.032 49.3721L458.028 49.3888C458.493 49.5046 458.969 49.6166 459.451 49.7279L460.11 49.8788L461.447 44.5171L464.705 45.3307L463.396 50.5874C463.738 50.6655 464.081 50.744 464.423 50.8234C464.956 50.947 465.486 51.0728 466.008 51.203L467.309 45.9807L470.569 46.7944L469.234 52.158ZM468.32 70.1263C467.396 73.8461 461.581 72.3081 458.92 71.6046C458.681 71.5413 458.467 71.4847 458.284 71.4393L460.075 64.2522C460.297 64.3077 460.569 64.3688 460.876 64.4379C463.628 65.0562 469.267 66.3231 468.32 70.1263ZM461.429 61.1024C463.647 61.6951 468.486 62.9882 469.328 59.6074C470.189 56.1494 465.486 55.1069 463.189 54.5979C462.931 54.5406 462.703 54.4901 462.517 54.4437L460.894 60.9623C461.047 61.0005 461.227 61.0486 461.429 61.1024Z" fill="#315EFB"/>
<path fill-rule="evenodd" clip-rule="evenodd" d="M83.6558 161.552C76.0225 168.302 75.3038 179.975 82.0411 187.613C88.7784 195.252 100.436 195.981 108.07 189.23C115.703 182.48 116.422 170.807 109.684 163.168C102.947 155.53 91.2894 154.801 83.6558 161.552ZM94.5367 167.396C96.9957 166.379 99.234 166.134 100.563 168.187C101.537 169.688 101.369 170.98 100.592 172.068C102.548 171.582 104.174 172.05 105.162 174.481C106.39 177.499 104.647 179.387 101.676 181.156L103.245 184.182L101.423 185.13L99.8751 182.144C99.6021 182.287 99.3245 182.429 99.0413 182.573C98.8348 182.677 98.6253 182.782 98.4124 182.887L99.9683 185.886L98.1483 186.833L96.5748 183.802C96.4044 183.889 96.2325 183.976 96.0591 184.064L95.627 184.284C95.5076 184.345 95.388 184.406 95.2679 184.468L92.8968 185.701L92.1285 183.335L92.4085 183.194C92.5418 183.127 92.7066 183.043 92.8655 182.962C93.1785 182.802 93.4691 182.65 93.4532 182.646C93.9683 182.377 93.9124 181.935 93.8243 181.686L91.3433 176.903L91.4498 176.847L91.5357 176.802C91.4551 176.831 91.3875 176.864 91.3365 176.89L89.565 173.476C89.303 173.142 88.8404 172.838 88.1024 173.221C88.1119 173.185 86.7796 173.91 86.7796 173.91L85.7684 171.962L88.2818 170.656L88.2867 170.665C88.6644 170.469 89.0479 170.26 89.4383 170.047L87.8846 167.05L89.7054 166.103L91.2291 169.04C91.7105 168.778 92.1951 168.514 92.6741 168.264L91.16 165.346L92.9818 164.399L94.5367 167.396ZM101.376 175.994C102.455 178.072 99.171 179.722 97.6685 180.477L97.6524 180.485C97.5235 180.55 97.4083 180.608 97.3106 180.659L95.2274 176.643C95.3509 176.579 95.4986 176.497 95.6663 176.405L95.6693 176.403C97.1795 175.572 100.274 173.869 101.376 175.994ZM94.5753 174.652C95.8304 174.026 98.5687 172.658 97.5889 170.769C96.5865 168.836 94.0115 170.264 92.7545 170.961C92.6131 171.039 92.4883 171.108 92.3843 171.162L94.2737 174.805C94.3594 174.76 94.4612 174.709 94.5753 174.652Z" fill="#315EFB"/>
<path d="M197.667 328.879L216.013 310.51" stroke="#28BC00" stroke-width="2" stroke-linecap="round" stroke-linejoin="round"/>
<path d="M209.503 330.657L234.951 305.176" stroke="#28BC00" stroke-width="2" stroke-linecap="round" stroke-linejoin="round"/>
<path d="M417.822 106.071L431.434 92.4418" stroke="#28BC00" stroke-width="2" stroke-linecap="round" stroke-linejoin="round"/>
<path d="M440.903 95.9973L418.414 118.515" stroke="#28BC00" stroke-width="2" stroke-linecap="round" stroke-linejoin="round"/>
<path d="M136.118 70.5165L149.138 83.5531" stroke="#28BC00" stroke-width="2" stroke-linecap="round" stroke-linejoin="round"/>
<path d="M450.964 311.695L459.249 319.991" stroke="#28BC00" stroke-width="2" stroke-linecap="round" stroke-linejoin="round"/>
<path d="M435.577 308.732L455.698 328.879" stroke="#28BC00" stroke-width="2" stroke-linecap="round" stroke-linejoin="round"/>
<path d="M519.023 291.547L523.758 296.288" stroke="#28BC00" stroke-width="2" stroke-linecap="round" stroke-linejoin="round"/>
<path d="M507.187 290.362L515.472 298.658" stroke="#28BC00" stroke-width="2" stroke-linecap="round" stroke-linejoin="round"/>
<defs>
<linearGradient id="paint0_linear_1_213" x1="256.657" y1="79.5963" x2="194.009" y2="-8.22015" gradientUnits="userSpaceOnUse">
<stop stop-color="#28BC00"/>
<stop offset="1" stop-color="#28BC00" stop-opacity="0"/>
</linearGradient>
<linearGradient id="paint1_linear_1_213" x1="88.1807" y1="101.923" x2="76.3443" y2="101.923" gradientUnits="userSpaceOnUse">
<stop stop-color="#EEEEFF"/>
<stop offset="1" stop-color="#EEEEFF" stop-opacity="0"/>
</linearGradient>
<linearGradient id="paint2_linear_1_213" x1="450.372" y1="125.626" x2="438.536" y2="125.626" gradientUnits="userSpaceOnUse">
<stop stop-color="#EEEEFF"/>
<stop offset="1" stop-color="#EEEEFF" stop-opacity="0"/>
</linearGradient>
<linearGradient id="paint3_linear_1_213" x1="536.777" y1="74.6645" x2="524.941" y2="74.6645" gradientUnits="userSpaceOnUse">
<stop stop-color="#EEEEFF"/>
<stop offset="1" stop-color="#EEEEFF" stop-opacity="0"/>
</linearGradient>
<linearGradient id="paint4_linear_1_213" x1="162.75" y1="304.584" x2="150.913" y2="304.584" gradientUnits="userSpaceOnUse">
<stop stop-color="#EEEEFF"/>
<stop offset="1" stop-color="#EEEEFF" stop-opacity="0"/>
</linearGradient>
<linearGradient id="paint5_linear_1_213" x1="425.323" y1="263.132" x2="129.425" y2="230.154" gradientUnits="userSpaceOnUse">
<stop/>
<stop offset="1" stop-opacity="0"/>
</linearGradient>
<linearGradient id="paint6_linear_1_213" x1="383.716" y1="212.463" x2="350.255" y2="209.466" gradientUnits="userSpaceOnUse">
<stop stop-color="#DADAFF"/>
<stop offset="1" stop-color="#EEEEFF" stop-opacity="0"/>
</linearGradient>
<linearGradient id="paint7_linear_1_213" x1="356.882" y1="69.7198" x2="186.679" y2="53.7938" gradientUnits="userSpaceOnUse">
<stop stop-color="#DADAFF"/>
<stop offset="1" stop-color="#EEEEFF" stop-opacity="0"/>
</linearGradient>
<linearGradient id="paint8_linear_1_213" x1="425.774" y1="237.881" x2="417.393" y2="229.511" gradientUnits="userSpaceOnUse">
<stop stop-color="#EEEEFF"/>
<stop offset="1" stop-color="#EEEEFF" stop-opacity="0"/>
</linearGradient>
<linearGradient id="paint9_linear_1_213" x1="347.615" y1="352.782" x2="-89.2879" y2="295.497" gradientUnits="userSpaceOnUse">
<stop stop-color="#DADAFF"/>
<stop offset="1" stop-color="#EEEEFF" stop-opacity="0"/>
</linearGradient>
<linearGradient id="paint10_linear_1_213" x1="416.948" y1="401.584" x2="344.887" y2="285.267" gradientUnits="userSpaceOnUse">
<stop stop-color="#28BC00"/>
<stop offset="1" stop-color="#28BC00" stop-opacity="0"/>
</linearGradient>
<linearGradient id="paint11_linear_1_213" x1="597.414" y1="234.803" x2="457.071" y2="220.339" gradientUnits="userSpaceOnUse">
<stop stop-color="#DADAFF"/>
<stop offset="1" stop-color="#EEEEFF" stop-opacity="0"/>
</linearGradient>
</defs>
</svg>
